<svg width="42" height="34" viewBox="0 0 42 34" fill="none" xmlns="http://www.w3.org/2000/svg">
<path d="M29.9972 3.36328C24.9842 9.54818 20.4107 16.0586 16.2765 22.8945C17.4159 24.5872 18.6691 25.987 20.0363 27.0938C21.4035 28.2005 22.9497 28.7539 24.675 28.7539C26.2049 28.7539 27.6535 28.3145 29.0207 27.4355C30.3879 26.5566 31.6248 25.4824 32.7316 24.2129C33.8709 22.9108 34.8475 21.5273 35.6613 20.0625C36.5077 18.5651 37.1587 17.2142 37.6144 16.0098C37.9399 15.196 38.5096 14.7891 39.3234 14.7891C39.8768 14.7891 40.3163 14.9844 40.6418 15.375C40.9998 15.7331 41.1789 16.1562 41.1789 16.6445C41.1789 16.8073 41.1463 17.0189 41.0812 17.2793C41.1138 17.2142 40.9673 17.5397 40.6418 18.2559C40.3163 18.972 39.828 19.8997 39.1769 21.0391C38.5259 22.1458 37.7284 23.3665 36.7843 24.7012C35.8403 26.0358 34.7498 27.2891 33.5129 28.4609C32.3084 29.6003 30.9575 30.5443 29.4601 31.293C27.9627 32.0742 26.3514 32.4648 24.6261 32.4648C22.4777 32.4648 20.5409 31.8952 18.8156 30.7559C17.1229 29.6165 15.5929 28.168 14.2258 26.4102C13.6724 27.3867 13.1353 28.3633 12.6144 29.3398C12.0936 30.3164 11.5728 31.293 11.0519 32.2695C10.6939 32.9531 10.1405 33.2949 9.39177 33.2949C8.83839 33.2949 8.38266 33.0996 8.02458 32.709C7.69906 32.3184 7.5363 31.8952 7.5363 31.4395C7.5363 31.179 7.61768 30.8861 7.78044 30.5605C8.43148 29.291 9.0988 28.0215 9.7824 26.752C10.466 25.4824 11.1821 24.2292 11.9308 22.9922C10.8241 21.0716 9.88005 19.1185 9.0988 17.1328C8.31755 15.1146 7.69906 13.2266 7.24333 11.4688L4.36247 17.4258C4.0044 18.1419 3.45102 18.5 2.70232 18.5C2.14893 18.5 1.6932 18.3047 1.33513 17.9141C1.00961 17.5234 0.846849 17.1003 0.846849 16.6445C0.846849 16.3516 0.911954 16.0911 1.04216 15.8633L6.36443 4.73047C6.52719 4.4375 6.75505 4.19336 7.04802 3.99805C7.34099 3.80273 7.66651 3.70508 8.02458 3.70508C8.54542 3.70508 8.96859 3.88411 9.29412 4.24219C9.61964 4.56771 9.81495 4.97461 9.88005 5.46289C9.9126 5.91862 10.0265 6.63477 10.2218 7.61133C10.4497 8.58789 10.7427 9.71094 11.1008 10.9805C11.4914 12.2174 11.9308 13.5521 12.4191 14.9844C12.9399 16.4167 13.5422 17.8327 14.2258 19.2324C18.132 12.8848 22.4452 6.8138 27.1652 1.01953C27.4907 0.596354 27.9627 0.384766 28.5812 0.384766C29.1021 0.384766 29.5415 0.563802 29.8996 0.921875C30.2577 1.27995 30.4367 1.70312 30.4367 2.19141C30.4367 2.64714 30.2902 3.03776 29.9972 3.36328Z" fill="white"/>
</svg>
